<svg width="197" height="53" viewBox="0 0 197 53" fill="none" xmlns="http://www.w3.org/2000/svg">
<path d="M6.87602 12.252H10.8L17.028 41.412H13.176L11.844 34.068H5.90402L4.50002 41.412H0.684021L6.87602 12.252ZM11.304 31.152L8.85602 18.012L6.44402 31.152H11.304ZM27.5108 41.736C25.4708 41.736 23.8748 41.328 22.7228 40.512C21.5948 39.696 20.8148 38.556 20.3828 37.092C19.9508 35.628 19.7348 33.792 19.7348 31.584V12.252H23.6228V31.764C23.6228 33.972 23.8748 35.652 24.3788 36.804C24.9068 37.956 25.9508 38.532 27.5108 38.532C29.0708 38.532 30.1028 37.956 30.6068 36.804C31.1348 35.652 31.3988 33.972 31.3988 31.764V12.252H35.2508V31.584C35.2508 33.792 35.0348 35.628 34.6028 37.092C34.1708 38.556 33.3908 39.696 32.2628 40.512C31.1348 41.328 29.5508 41.736 27.5108 41.736ZM42.7376 15.276H37.8056V12.252H51.5936V15.276H46.8056V41.412H42.7376V15.276ZM61.8567 41.736C59.0007 41.736 56.9487 40.932 55.7007 39.324C54.4767 37.692 53.8647 35.34 53.8647 32.268V21.216C53.8647 18.192 54.4887 15.9 55.7367 14.34C56.9847 12.78 59.0247 12 61.8567 12C64.6887 12 66.7167 12.792 67.9407 14.376C69.1887 15.936 69.8127 18.216 69.8127 21.216V32.304C69.8127 35.328 69.1887 37.656 67.9407 39.288C66.6927 40.92 64.6647 41.736 61.8567 41.736ZM61.8567 38.532C63.3687 38.532 64.3887 38.088 64.9167 37.2C65.4447 36.312 65.7087 34.968 65.7087 33.168V20.388C65.7087 18.612 65.4447 17.304 64.9167 16.464C64.3887 15.6 63.3687 15.168 61.8567 15.168C60.3207 15.168 59.2887 15.6 58.7607 16.464C58.2327 17.304 57.9687 18.612 57.9687 20.388V33.168C57.9687 34.968 58.2327 36.312 58.7607 37.2C59.2887 38.088 60.3207 38.532 61.8567 38.532ZM82.0375 12.252H93.3415V15.276H86.1055V24.924H91.9735V27.804H86.1055V38.496H93.4135V41.412H82.0375V12.252ZM100.982 26.148L95.0057 12.252H98.7857L103.214 22.548L107.246 12.252H111.026L104.906 26.472L111.314 41.412H107.534L102.782 30.432L98.6777 41.412H94.8977L100.982 26.148ZM114.065 12.252H121.301C123.821 12.252 125.645 12.936 126.773 14.304C127.925 15.672 128.501 17.676 128.501 20.316C128.501 22.692 127.889 24.54 126.665 25.86C125.441 27.18 123.665 27.84 121.337 27.84H118.133V41.412H114.065V12.252ZM120.005 24.924C121.205 24.924 122.129 24.792 122.777 24.528C123.449 24.264 123.929 23.808 124.217 23.16C124.505 22.512 124.649 21.576 124.649 20.352C124.649 18.864 124.541 17.772 124.325 17.076C124.109 16.38 123.677 15.888 123.029 15.6C122.405 15.312 121.409 15.168 120.041 15.168H118.133V24.924H120.005ZM131.362 12.252H137.23C140.182 12.252 142.342 12.864 143.71 14.088C145.102 15.288 145.798 17.256 145.798 19.992C145.798 23.736 144.598 26.004 142.198 26.796L146.338 41.412H142.414L138.598 27.732H135.43V41.412H131.362V12.252ZM136.978 24.816C138.73 24.816 139.978 24.468 140.722 23.772C141.49 23.076 141.874 21.816 141.874 19.992C141.874 18.792 141.742 17.856 141.478 17.184C141.214 16.488 140.746 15.984 140.074 15.672C139.402 15.336 138.454 15.168 137.23 15.168H135.43V24.816H136.978ZM150.03 12.252H161.334V15.276H154.098V24.924H159.966V27.804H154.098V38.496H161.406V41.412H150.03V12.252ZM171.566 41.736C169.118 41.736 167.246 40.98 165.95 39.468C164.678 37.956 163.97 35.88 163.826 33.24L167.426 32.268C167.546 34.14 167.906 35.652 168.506 36.804C169.13 37.956 170.15 38.532 171.566 38.532C172.622 38.532 173.414 38.244 173.942 37.668C174.494 37.068 174.77 36.216 174.77 35.112C174.77 33.912 174.518 32.916 174.014 32.124C173.51 31.332 172.706 30.456 171.602 29.496L166.706 25.176C165.722 24.312 165.002 23.388 164.546 22.404C164.114 21.396 163.898 20.172 163.898 18.732C163.898 16.596 164.51 14.94 165.734 13.764C166.958 12.588 168.626 12 170.738 12C173.042 12 174.782 12.612 175.958 13.836C177.134 15.06 177.842 16.956 178.082 19.524L174.626 20.46C174.506 18.756 174.17 17.448 173.618 16.536C173.09 15.6 172.13 15.132 170.738 15.132C169.706 15.132 168.914 15.408 168.362 15.96C167.81 16.488 167.534 17.28 167.534 18.336C167.534 19.2 167.678 19.932 167.966 20.532C168.254 21.108 168.746 21.696 169.442 22.296L174.374 26.616C175.646 27.744 176.654 28.968 177.398 30.288C178.166 31.608 178.55 33.108 178.55 34.788C178.55 36.924 177.902 38.616 176.606 39.864C175.31 41.112 173.63 41.736 171.566 41.736ZM188.582 41.736C186.134 41.736 184.262 40.98 182.966 39.468C181.694 37.956 180.986 35.88 180.842 33.24L184.442 32.268C184.562 34.14 184.922 35.652 185.522 36.804C186.146 37.956 187.166 38.532 188.582 38.532C189.638 38.532 190.43 38.244 190.958 37.668C191.51 37.068 191.786 36.216 191.786 35.112C191.786 33.912 191.534 32.916 191.03 32.124C190.526 31.332 189.722 30.456 188.618 29.496L183.722 25.176C182.738 24.312 182.018 23.388 181.562 22.404C181.13 21.396 180.914 20.172 180.914 18.732C180.914 16.596 181.526 14.94 182.75 13.764C183.974 12.588 185.642 12 187.754 12C190.058 12 191.798 12.612 192.974 13.836C194.15 15.06 194.858 16.956 195.098 19.524L191.642 20.46C191.522 18.756 191.186 17.448 190.634 16.536C190.106 15.6 189.146 15.132 187.754 15.132C186.722 15.132 185.93 15.408 185.378 15.96C184.826 16.488 184.55 17.28 184.55 18.336C184.55 19.2 184.694 19.932 184.982 20.532C185.27 21.108 185.762 21.696 186.458 22.296L191.39 26.616C192.662 27.744 193.67 28.968 194.414 30.288C195.182 31.608 195.566 33.108 195.566 34.788C195.566 36.924 194.918 38.616 193.622 39.864C192.326 41.112 190.646 41.736 188.582 41.736Z" fill="white"/>
<path d="M0 5.5H80" stroke="white" stroke-width="3"/>
<path d="M0 48.5H80" stroke="white" stroke-width="3"/>
</svg>
